<?xml version="1.0" encoding="utf-8"?>
<!-- Generator: Adobe Illustrator 16.0.0, SVG Export Plug-In . SVG Version: 6.00 Build 0)  -->
<!DOCTYPE svg PUBLIC "-//W3C//DTD SVG 1.1//EN" "http://www.w3.org/Graphics/SVG/1.1/DTD/svg11.dtd">
<svg version="1.1" id="圖層_1" xmlns="http://www.w3.org/2000/svg" xmlns:xlink="http://www.w3.org/1999/xlink" x="0px" y="0px"
	 width="610px" height="160px" viewBox="0 0 610 160" enable-background="new 0 0 610 160" xml:space="preserve">
<g>
	<g>
		<path fill="#E50012" d="M185.94,75.845c-9.37-4.686-32.902-14.774-25.768-23.942c7.135-9.169,10.775-2.257,29.223,10.041
			c18.448,12.299,28.177,21.381,28.177,21.381S209.564,87.663,185.94,75.845z"/>
		<path fill="#EF8200" d="M259.515,56.29c5.446-6.872,17.286-24.034,27.005-19.541c9.72,4.493,2.064,7.458-11.999,21.167
			s-24.306,21.089-24.306,21.089S245.786,73.617,259.515,56.29z"/>
		<path fill="#E50012" d="M228.914,51.08c-0.515-8.615-3.217-29.208,7.805-30.534c11.022-1.327,6.976,5.171,5.427,24.034
			c-1.547,18.861-4.53,30.417-4.53,30.417S230.213,72.8,228.914,51.08z"/>
		<path fill="#E50012" d="M282.102,75.886c0,0,37.935-17.052,38.187-12.419c0.25,4.633-14.751,17.06-30.945,22.238
			c-16.195,5.178-27.809-0.133-27.809-0.133L282.102,75.886z"/>
		<path fill="#EF8200" d="M167.922,80.623l45.396,12.729c0,0-28.644,4.016-47.815-1.447c-19.172-5.465-28.474-14.451-24.748-15.953
			C144.485,74.448,167.922,80.623,167.922,80.623z"/>
		<path fill="#EF8200" d="M213.786,45.266l12.972,33.537c0,0-20.048-13.542-25.44-27.761c-5.391-14.219-1.768-25.124,1.806-23.982
			C206.698,28.202,213.786,45.266,213.786,45.266z"/>
		<g>
			<path fill="#009844" d="M117.751,97.822c0,0,20.91,13.346,64.064,8.451s76.076-13.346,106.328-12.012
				c30.253,1.335,44.044,16.905,52.052,24.469c0,0-13.793-5.564-39.595-8.68c-25.803-3.114-42.264,4.23-76.966,10.46
				C188.934,126.74,156.012,135.193,117.751,97.822z"/>
			<path fill="#4FB99F" d="M186.709,129.408c-1.152-0.674,12.457,5.605,52.941-3.426c40.485-9.029,71.627-13.791,111.223,0
				c0,0-33.813-5.471-65.399,2.981C253.278,137.581,217.851,147.65,186.709,129.408z"/>
		</g>
	</g>
	<g>
		<path fill="#E50012" d="M372.623,101.111c0.422,1.801,1.201,3.282,2.338,4.441c1.135,1.16,2.604,2.031,4.408,2.609
			c1.805,0.582,3.865,0.871,6.188,0.871c1.891,0,3.797-0.275,5.712-0.824c1.914-0.55,3.692-1.404,5.337-2.564
			c1.643-1.158,3.09-2.625,4.342-4.396c1.248-1.77,2.126-3.877,2.629-6.318c0,0,7.009-34.762,8.328-40.443
			c1.32-5.682,5.102-6.54,5.102-6.54l-9.522,46.251c-0.668,3.236-1.774,6.016-3.32,8.334c-1.547,2.32-3.438,4.244-5.677,5.77
			c-2.238,1.527-4.758,2.643-7.558,3.344c-2.802,0.702-5.79,1.053-8.966,1.053c-3.237,0-6.303-0.383-9.199-1.146
			c-2.897-0.762-5.354-1.951-7.371-3.571c-2.019-1.616-3.469-3.692-4.352-6.227c-0.883-2.532-0.952-5.602-0.211-9.204
			c0,0,7.281-35.42,7.867-38.208c0.584-2.786,1.936-6.396,5.637-6.396c2.434,0,3.266,0,5.018,0c3.201,0,2.367,3.213,2.367,3.213
			l-8.994,43.679C372.234,97.217,372.199,99.311,372.623,101.111z"/>
		<path fill="#EF8200" d="M521.813,52.653c-2.727-0.969-6.036-1.412-9.76-1.412c-4.705,0-8.519,0.886-11.448,2.656
			c-2.93,1.771-4.741,4.336-5.433,7.693c-0.615,2.993-0.01,5.236,1.82,6.732c1.83,1.497,4.659,2.58,8.49,3.25
			c3.479,0.612,6.664,1.452,9.557,2.52c2.896,1.068,5.305,2.488,7.232,4.259c1.924,1.771,3.282,3.922,4.074,6.456
			c0.791,2.535,0.828,5.541,0.111,9.021c-0.98,4.758-3.088,9.046-6.684,12.365c-2.134,1.971-4.639,3.541-7.354,4.575
			c-4.563,1.738-9.303,2.239-14.164,1.888c-2.137-0.154-4.271-0.445-6.35-0.988c-3.617-0.949-6.996-2.502-10.066-4.639
			c-3.121-2.174-5.658-5.073-7.148-8.592c0.198,0.48,1.17,1.111,1.572,1.459c0.461,0.399,0.953,0.771,1.439,1.139
			c1.275,0.961,2.607,1.852,4,2.635c4.809,2.696,9.937,5.053,15.514,5.053c5.251,0,9.191-0.982,11.893-3.119
			c2.699-2.137,4.461-4.357,5.217-8.02c0.716-3.48,0.043-6.288-2.021-8.426c-2.064-2.137-5.256-3.541-9.575-4.213
			c-3.138-0.489-6.046-1.191-8.727-2.107c-2.683-0.916-4.94-2.105-6.776-3.572c-1.836-1.465-3.153-3.297-3.951-5.495
			c-0.801-2.199-0.885-4.823-0.256-7.876c0.604-2.931,1.764-5.526,3.48-7.785c1.717-2.258,3.851-4.168,6.4-5.725
			c2.551-1.557,5.436-2.747,8.66-3.572c3.221-0.824,6.635-1.236,10.238-1.236c2.748,0,5.052,0.366,7.25,0.825
			c2.478,0.516,4.966,1.377,7.199,2.567c1.129,0.603,2.207,1.339,3.216,2.15c1.519,1.217-1.599,2.084-2.858,1.529
			C525.176,54.018,523.77,53.35,521.813,52.653z"/>
		<path fill="#E50012" d="M475.191,58.752c-0.531-2.015-1.627-3.815-3.283-5.403c-1.658-1.587-3.895-2.885-6.71-3.893
			c-2.816-1.008-6.3-1.511-10.452-1.511h-26.84c0,0-11.605,55.762-11.959,57.977s-1.406,6.128,2.196,6.128
			c1.7,0,2.665-0.063,4.517-0.063c2.492,0,4.701-1.617,5.597-5.691c0.603-2.739,11.263-54.688,11.263-54.688h12.916
			c2.258,0,4.172,0.353,5.736,1.053c1.564,0.702,2.803,1.665,3.713,2.885c0.907,1.222,1.484,2.642,1.734,4.259
			c0.246,1.618,0.186,3.313-0.178,5.083c-0.365,1.771-1.005,3.466-1.916,5.083c-1.645,2.916-4.236,5.256-7.197,6.787
			c-1.996,1.032-4.152,1.646-6.309,2.243c-3.703,1.026-7.517,1.533-11.278,2.295c-0.708,0.144-1.417,0.291-2.122,0.444h13.17
			c4.15,0,7.84-0.488,11.064-1.466c3.223-0.976,5.99-2.258,8.305-3.846c2.31-1.587,4.146-3.389,5.509-5.404
			c1.36-2.015,2.257-4.06,2.684-6.136C475.776,62.813,475.723,60.767,475.191,58.752z"/>
		<path fill="#009844" d="M597.725,53.349c-1.18-1.099-2.604-2.106-4.279-3.022c-1.674-0.916-3.674-1.664-5.996-2.244
			c-2.322-0.58-5.074-0.87-8.248-0.87c-5.984,0-11.416,0.948-16.295,2.839c-4.879,1.893-9.129,4.367-12.75,7.418
			c-3.621,3.054-6.584,6.548-8.892,10.485c-2.308,3.939-3.883,7.954-4.724,12.044c-0.843,4.092-0.922,8.104-0.236,12.043
			c0.686,3.938,2.21,7.436,4.574,10.486c2.362,3.053,5.594,5.527,9.693,7.419c4.099,1.892,9.139,2.837,15.125,2.837
			c3.176,0,6.041-0.273,8.598-0.822c2.555-0.551,4.887-1.268,6.993-2.152c2.105-0.883,4.114-1.844,5.862-3.113
			c7.777-5.645,8.525-11.145,8.525-11.145s-3.801,3.775-5.686,5.146c-1.303,0.978-2.684,1.969-4.141,2.976
			c-1.46,1.009-3.112,1.91-4.953,2.703c-1.844,0.794-3.934,1.45-6.27,1.97c-2.336,0.519-5,0.778-7.992,0.778
			c-3.725,0-6.816-0.778-9.275-2.336c-2.458-1.557-4.345-3.662-5.66-6.318c-1.316-2.656-2.084-5.74-2.309-9.25
			c-0.225-3.512,0.072-7.252,0.89-11.22c0.805-3.907,2.026-7.617,3.665-11.128c1.64-3.51,3.662-6.593,6.074-9.25
			c2.409-2.656,5.182-4.776,8.318-6.365c3.134-1.586,6.564-2.382,10.291-2.382c2.565,0,4.809,0.229,6.729,0.687
			c1.922,0.458,3.631,1.053,5.129,1.786s2.803,1.588,3.915,2.564c0.812,0.714,1.009,0.964,1.78,1.662
			c1.35,1.22,3.137,0.116,3.395-0.078c0.703-0.528,0.914-1.268,0.34-1.905C599.25,54.85,598.526,54.096,597.725,53.349z"/>
	</g>
</g>
</svg>
